<svg width="19" height="19" viewBox="0 0 19 19" fill="none" xmlns="http://www.w3.org/2000/svg">
<path d="M9.3697 0.451172C4.59113 0.451172 0.728516 4.53583 0.728516 9.5891C0.728516 14.6424 4.59113 18.727 9.3697 18.727C14.1483 18.727 18.0109 14.6424 18.0109 9.5891C18.0109 4.53583 14.1483 0.451172 9.3697 0.451172ZM9.3697 16.8994C5.55894 16.8994 2.45675 13.6189 2.45675 9.5891C2.45675 5.55928 5.55894 2.27876 9.3697 2.27876C13.1805 2.27876 16.2827 5.55928 16.2827 9.5891C16.2827 13.6189 13.1805 16.8994 9.3697 16.8994ZM12.4719 5.02014L9.3697 8.30065L6.26752 5.02014L5.04911 6.30859L8.1513 9.5891L5.04911 12.8696L6.26752 14.1581L9.3697 10.8776L12.4719 14.1581L13.6903 12.8696L10.5881 9.5891L13.6903 6.30859L12.4719 5.02014Z" fill="#525252"/>
</svg>
