<svg width="25" height="25" viewBox="0 0 25 25" fill="none" xmlns="http://www.w3.org/2000/svg">
<g id="Group 15">
<path id="Vector" d="M8.00544 12.0616C8.00544 9.85061 9.79682 8.05775 12.0072 8.05775C14.2176 8.05775 16.0099 9.85061 16.0099 12.0616C16.0099 14.2727 14.2176 16.0655 12.0072 16.0655C9.79682 16.0655 8.00544 14.2727 8.00544 12.0616ZM5.84165 12.0616C5.84165 15.4679 8.60196 18.229 12.0072 18.229C15.4124 18.229 18.1728 15.4679 18.1728 12.0616C18.1728 8.65541 15.4124 5.8943 12.0072 5.8943C8.60196 5.8943 5.84165 8.65541 5.84165 12.0616ZM16.976 5.64976C16.9759 5.93482 17.0603 6.21351 17.2185 6.45059C17.3767 6.68767 17.6017 6.87249 17.8649 6.98169C18.1281 7.09088 18.4178 7.11954 18.6974 7.06404C18.9769 7.00853 19.2337 6.87137 19.4353 6.66988C19.6369 6.4684 19.7742 6.21164 19.8299 5.93208C19.8856 5.65252 19.8572 5.36272 19.7482 5.09932C19.6393 4.83591 19.4547 4.61074 19.2178 4.45228C18.9809 4.29381 18.7024 4.20917 18.4174 4.20906H18.4168C18.0349 4.20924 17.6686 4.36106 17.3984 4.63119C17.1282 4.90132 16.9763 5.26766 16.976 5.64976ZM7.15629 21.838C5.98564 21.7847 5.34935 21.5896 4.92651 21.4249C4.36591 21.2066 3.96593 20.9465 3.54539 20.5265C3.12485 20.1064 2.86453 19.7067 2.64725 19.1459C2.48242 18.7231 2.28742 18.0865 2.2342 16.9155C2.17599 15.6495 2.16437 15.2692 2.16437 12.0617C2.16437 8.8543 2.17695 8.47505 2.2342 7.20798C2.28752 6.03698 2.48395 5.40157 2.64725 4.97755C2.86549 4.41679 3.12543 4.01669 3.54539 3.59603C3.96535 3.17537 4.36495 2.91498 4.92651 2.69763C5.34916 2.53275 5.98564 2.3377 7.15629 2.28447C8.42195 2.22624 8.80214 2.21461 12.0072 2.21461C15.2123 2.21461 15.5928 2.2272 16.8596 2.28447C18.0302 2.3378 18.6654 2.53429 19.0893 2.69763C19.6499 2.91498 20.0499 3.17595 20.4705 3.59603C20.891 4.01612 21.1503 4.41679 21.3686 4.97755C21.5334 5.40032 21.7284 6.03698 21.7816 7.20798C21.8398 8.47505 21.8515 8.8543 21.8515 12.0617C21.8515 15.2692 21.8398 15.6484 21.7816 16.9155C21.7283 18.0865 21.5324 18.7229 21.3686 19.1459C21.1503 19.7067 20.8904 20.1068 20.4705 20.5265C20.0505 20.9462 19.6499 21.2066 19.0893 21.4249C18.6667 21.5897 18.0302 21.7848 16.8596 21.838C15.5939 21.8963 15.2137 21.9079 12.0072 21.9079C8.8007 21.9079 8.42156 21.8963 7.15629 21.838ZM7.05687 0.123701C5.77863 0.181929 4.90518 0.384669 4.14239 0.681572C3.35241 0.988181 2.68366 1.39952 2.01538 2.06693C1.34711 2.73434 0.936946 3.40434 0.630426 4.19455C0.333608 4.95804 0.130927 5.83127 0.0727156 7.10987C0.0135441 8.3905 0 8.79992 0 12.0616C0 15.3233 0.0135441 15.7328 0.0727156 17.0134C0.130927 18.2921 0.333608 19.1652 0.630426 19.9287C0.936946 20.7184 1.34721 21.3892 2.01538 22.0563C2.68356 22.7235 3.35241 23.1342 4.14239 23.4417C4.90662 23.7386 5.77863 23.9413 7.05687 23.9996C8.3378 24.0578 8.74643 24.0723 12.0072 24.0723C15.268 24.0723 15.6773 24.0587 16.9575 23.9996C18.2359 23.9413 19.1087 23.7386 19.872 23.4417C20.6615 23.1342 21.3307 22.7237 21.999 22.0563C22.6673 21.3889 23.0766 20.7184 23.384 19.9287C23.6808 19.1652 23.8844 18.292 23.9417 17.0134C23.9999 15.7318 24.0134 15.3233 24.0134 12.0616C24.0134 8.79992 23.9999 8.3905 23.9417 7.10987C23.8835 5.83117 23.6808 4.95756 23.384 4.19455C23.0766 3.40482 22.6662 2.7354 21.999 2.06693C21.3318 1.39847 20.6615 0.988181 19.873 0.681572C19.1087 0.384669 18.2358 0.180968 16.9585 0.123701C15.6782 0.0654732 15.2689 0.0509644 12.0082 0.0509644C8.74739 0.0509644 8.3378 0.0645124 7.05687 0.123701Z" fill="white"/>
</g>
</svg>
