<svg width="29" height="22" viewBox="0 0 29 22" fill="none" xmlns="http://www.w3.org/2000/svg">
<g id="Group 81">
<path id="Vector" d="M2.03132 21.7026H6.47827V10.9029L0.125488 6.13831V19.7968C0.125488 20.8513 0.979937 21.7026 2.03132 21.7026Z" fill="#4285F4"/>
<path id="Vector_2" d="M21.7251 21.7026H26.172C27.2266 21.7026 28.0779 20.8482 28.0779 19.7968V6.13831L21.7251 10.9029" fill="#34A853"/>
<path id="Vector_3" d="M21.7251 2.64441V10.903L28.0779 6.13844V3.59733C28.0779 1.24045 25.3875 -0.103167 23.5039 1.31033" fill="#FBBC04"/>
<path id="Vector_4" d="M6.47803 10.9029V2.64428L14.1014 8.36178L21.7247 2.64428V10.9029L14.1014 16.6204" fill="#EA4335"/>
<path id="Vector_5" d="M0.125488 3.59733V6.13844L6.47827 10.903V2.64441L4.69949 1.31033C2.81271 -0.103167 0.125488 1.24045 0.125488 3.59733Z" fill="#C5221F"/>
</g>
</svg>
