<?xml version="1.0" encoding="UTF-8"?>
<svg id="Capa_2" xmlns="http://www.w3.org/2000/svg" viewBox="0 0 56 56">
  <defs>
    <style>
      .cls-1 {
        fill: #fff;
      }

      .cls-2 {
        fill: #756685;
      }
    </style>
  </defs>
  <circle class="cls-2" cx="28" cy="28" r="28"/>
  <g>
    <path class="cls-1" d="M42.03,17.48c7.08,1.83,8.69,9.59,7.27,15.95-1.49,6.69-6.33,12.36-12.85,14.54-6.99,2.35-14.69.65-20.02-4.46-5.78-5.54-6.73-13.2-4.91-20.67-3.05-.47-5.6-1.86-7.68-4.26,2.88-1.61,5.57-3.04,8.25-5.03,3.1-2.31,5.91-4.01,9.94-3.43,3.44.5,5.54,3.06,8.6,4.32,3.57,1.46,6.82-.28,10.41-.28.34,1.12.66,2.2.99,3.32ZM37.76,16.97c-3.32.21-6.17.52-9.15-1.2-2.18-1.26-3.76-2.95-6.31-3.44-5.75-1.12-10.32,3.69-14.59,6.8,2.57,1.89,4.76,1.65,7.42.76-1.83,3.06-3.18,6.95-2.45,10.38,1.98-1.77,4.05-2.24,6.61-1.31.41-2.19.9-4.67,1.52-6.8,1.22,1.4,2.6,3.83,4.45,5.06,1.58,1.05,3.56,1.34,5.42,1.11,3.27-.41,10.41-4.59,9.32-8.77-1.11-.95-2.6-.85-3.95-1.47.69-.45,1.17-.76,1.72-1.12ZM42.23,19.74c-.06,1.4-.58,2.53-1.19,3.75-.82,1.63-.79,1.76-.42,3.62.6,3,1.12,5.95.58,9.01-.97,5.47-5.39,8.33-10.8,8.51-4.73.15-9.28-2.7-9.88-7.6-.31-2.52.45-5.84-3.03-6.39-1.98-.31-4.06,1.12-4.17,3.15-.28,4.8,5.79,9.92,9.57,11.63,4.74,2.15,10.41,2.03,15.05-.33,4.68-2.38,8.04-6.77,9.23-11.88,1.12-4.83.68-11.74-4.92-13.47ZM38.42,26.95c-5.01,3.25-12.22,5.77-16.6-.05-.3,1.49-.59,3.32-.59,3.32,0,0,.65.97,1.03,2.05.56,1.61.18,3.07.39,4.69.46,3.5,3.64,5.42,6.98,5.59,9.43.48,10.73-8.26,8.78-15.6Z"/>
    <path class="cls-1" d="M24.52,20.43c0-2.35,1.73-3.2,3.63-2.11-1.33.38-2.45,1.08-3.63,2.11Z"/>
    <path class="cls-1" d="M28.01,37.38h-3.84c.54-1.76,3.34-1.98,3.84,0Z"/>
    <path class="cls-1" d="M32.15,37.39c.71-1.93,3.07-1.92,3.82,0h-3.82Z"/>
    <path class="cls-1" d="M31.7,40.22c-.61.47-1.09.84-1.62,1.25-.56-.42-1.04-.78-1.63-1.23,1.14-.56,2.1-.65,3.25-.02Z"/>
  </g>
</svg>