<svg width="58" height="53" viewBox="0 0 58 53" fill="none" xmlns="http://www.w3.org/2000/svg">
<g clip-path="url(#clip0_1964_2351)">
<path d="M47.7841 10.502C56.6441 12.9474 58.6552 23.303 56.8887 31.7811C55.0243 40.7111 48.9636 48.2678 40.8103 51.1884C32.059 54.3235 22.4272 52.0635 15.7469 45.237C8.50667 37.8368 7.32171 27.6203 9.61009 17.6587C5.78888 17.0213 2.60364 15.1727 0 11.9739C3.60378 9.82394 6.9684 7.91739 10.3221 5.2633C14.2086 2.18617 17.7145 -0.0854599 22.7587 0.685271C27.0583 1.3459 29.6945 4.77073 33.5157 6.44547C37.9783 8.39838 42.0441 6.07459 46.5394 6.07459C46.9633 7.57549 47.3656 9.00685 47.7841 10.502ZM42.4409 9.81814C38.2882 10.0963 34.717 10.5135 30.9828 8.21873C28.2595 6.53819 26.281 4.28395 23.0849 3.62332C15.8882 2.13401 10.1754 8.54325 4.82679 12.6982C8.04465 15.2191 10.7842 14.9061 14.1107 13.7124C11.8224 17.792 10.1319 22.9785 11.0396 27.5681C13.5128 25.2038 16.1056 24.5837 19.3071 25.8181C19.8235 22.8974 20.4269 19.5943 21.2096 16.7489C22.7316 18.6207 24.4655 21.8543 26.7811 23.5001C28.765 24.9082 31.2328 25.2965 33.5647 24.9836C37.6522 24.4331 46.5883 18.8583 45.2294 13.2777C43.8379 12.0144 41.9735 12.1419 40.283 11.3132C41.1473 10.7164 41.7561 10.2933 42.4409 9.81814ZM48.0341 13.5153C47.9526 15.3871 47.3112 16.888 46.5448 18.5222C45.5229 20.7011 45.5501 20.8692 46.0121 23.3494C46.7568 27.3537 47.4145 31.2827 46.735 35.3682C45.5229 42.664 39.9949 46.4887 33.2168 46.7263C27.2974 46.9291 21.6064 43.1276 20.8563 36.5793C20.4704 33.2124 21.4216 28.7851 17.0623 28.0549C14.5891 27.6435 11.9854 29.55 11.8387 32.2563C11.4908 38.6539 19.0789 45.4862 23.8132 47.7752C29.7489 50.6379 36.8423 50.4872 42.6421 47.3406C48.4962 44.1649 52.7033 38.3004 54.1926 31.4913C55.6059 25.0531 55.046 15.8275 48.0341 13.5153ZM43.2671 23.135C36.9999 27.4696 27.9769 30.8365 22.4978 23.0712C22.1282 25.0589 21.764 27.4986 21.764 27.4986C21.764 27.4986 22.5739 28.7851 23.0468 30.2396C23.748 32.3838 23.2697 34.3309 23.536 36.4982C24.1122 41.1631 28.0856 43.7245 32.2764 43.9563C44.077 44.6054 45.7077 32.9285 43.2671 23.135Z" fill="#FAFAFA"/>
<path d="M25.8711 14.4368C25.8711 11.3018 28.0399 10.1717 30.4098 11.6263C28.7411 12.1362 27.3387 13.0634 25.8711 14.4368Z" fill="#FAFAFA"/>
<path d="M30.2386 37.0549H25.4336C26.1076 34.7137 29.6135 34.4124 30.2386 37.0549Z" fill="#FAFAFA"/>
<path d="M35.4219 37.0665C36.3133 34.4936 39.2594 34.5109 40.2052 37.0665H35.4219Z" fill="#FAFAFA"/>
<path d="M34.8588 40.8383C34.0924 41.4642 33.489 41.9625 32.8367 42.5015C32.141 41.9451 31.5376 41.4584 30.793 40.8615C32.2171 40.1139 33.4129 39.9864 34.8588 40.8383Z" fill="#FAFAFA"/>
</g>
<defs>
<clipPath id="clip0_1964_2351">
<rect width="57.4757" height="52.0388" fill="white" transform="translate(0 0.533936)"/>
</clipPath>
</defs>
</svg>
