<svg width="129" height="182" viewBox="0 0 129 182" fill="none" xmlns="http://www.w3.org/2000/svg">
<path d="M95.9089 182L99.5857 156.219H104.771L108.682 182H105.02L104.405 177.4H100.245L99.6882 182H95.9089ZM100.626 174.251H103.995L102.266 161.302H102.208L100.626 174.251Z" fill="#6F6F6E"/>
<path d="M82.9668 182V156.219H88.7529C90.0615 156.219 91.1113 156.482 91.9023 157.01C92.6934 157.527 93.2646 158.279 93.6162 159.266C93.9775 160.252 94.1582 161.443 94.1582 162.84L94.1729 174.471C94.1729 176.16 93.9873 177.566 93.6162 178.689C93.2549 179.803 92.6689 180.633 91.8584 181.18C91.0479 181.727 89.9688 182 88.6211 182H82.9668ZM86.8926 178.953H88.1816C88.6406 178.953 89.0215 178.86 89.3242 178.675C89.6367 178.489 89.8662 178.162 90.0127 177.693C90.1689 177.215 90.2471 176.541 90.2471 175.672L90.2324 162.942C90.2324 161.624 90.0713 160.677 89.749 160.101C89.4268 159.524 88.8604 159.236 88.0498 159.236H86.8926V178.953Z" fill="#6F6F6E"/>
<path d="M75.386 182V156.219H79.3118V182H75.386Z" fill="#6F6F6E"/>
<path d="M64.5972 182L60.5981 156.219H64.3335L66.0181 167.864L67.0581 176.067H67.1606L68.0542 167.864L69.4604 156.219H73.1226L69.4458 182H64.5972Z" fill="#6F6F6E"/>
<path d="M45.4653 182V156.219H54.1079V159.603H49.3911V167.103H53.8735V170.413H49.3911V178.616H54.2837V182H45.4653Z" fill="#6F6F6E"/>
<path d="M31 182V156.219H36.7861C38.0947 156.219 39.1445 156.482 39.9355 157.01C40.7266 157.527 41.2979 158.279 41.6494 159.266C42.0107 160.252 42.1914 161.443 42.1914 162.84L42.2061 174.471C42.2061 176.16 42.0205 177.566 41.6494 178.689C41.2881 179.803 40.7021 180.633 39.8916 181.18C39.0811 181.727 38.002 182 36.6543 182H31ZM34.9258 178.953H36.2148C36.6738 178.953 37.0547 178.86 37.3574 178.675C37.6699 178.489 37.8994 178.162 38.0459 177.693C38.2021 177.215 38.2803 176.541 38.2803 175.672L38.2656 162.942C38.2656 161.624 38.1045 160.677 37.7822 160.101C37.46 159.524 36.8936 159.236 36.083 159.236H34.9258V178.953Z" fill="#6F6F6E"/>
<path d="M96.1157 152.293C94.7778 152.293 93.6841 152.01 92.8345 151.443C91.9946 150.877 91.3745 150.037 90.9741 148.924C90.5737 147.811 90.3735 146.434 90.3735 144.793V133.001C90.3735 131.517 90.5688 130.247 90.9595 129.192C91.3501 128.138 91.9702 127.327 92.8198 126.761C93.6694 126.194 94.7827 125.911 96.1597 125.911C97.1948 125.911 98.0688 126.072 98.7817 126.395C99.4946 126.717 100.071 127.186 100.51 127.801C100.95 128.406 101.267 129.148 101.462 130.027C101.667 130.896 101.77 131.888 101.77 133.001V144.793C101.77 146.434 101.575 147.811 101.184 148.924C100.803 150.037 100.198 150.877 99.3677 151.443C98.5376 152.01 97.4536 152.293 96.1157 152.293ZM96.1157 148.895C96.604 148.895 96.9702 148.748 97.2144 148.455C97.4585 148.162 97.6196 147.718 97.6978 147.122C97.7856 146.517 97.8296 145.755 97.8296 144.837V132.825C97.8296 131.702 97.7222 130.838 97.5073 130.232C97.3022 129.617 96.853 129.31 96.1597 129.31C95.4468 129.31 94.9634 129.607 94.7095 130.203C94.4556 130.789 94.3286 131.658 94.3286 132.811V144.837C94.3286 145.774 94.3677 146.546 94.4458 147.151C94.5337 147.747 94.7046 148.187 94.9585 148.47C95.2222 148.753 95.6079 148.895 96.1157 148.895Z" fill="#6F6F6E"/>
<path d="M80.2732 152V126.219H84.199V148.66H89.1648V152H80.2732Z" fill="#6F6F6E"/>
<path d="M66.7451 152V126.219H72.6631C73.6885 126.219 74.5381 126.375 75.2119 126.688C75.8955 127 76.4326 127.464 76.8232 128.079C77.2139 128.694 77.4922 129.456 77.6582 130.364C77.8242 131.263 77.9072 132.303 77.9072 133.484V134.026C77.9072 135.687 77.7607 137.103 77.4678 138.274C77.1846 139.437 76.6719 140.32 75.9297 140.926C75.1875 141.531 74.1426 141.834 72.7949 141.834H70.6709V152H66.7451ZM70.6709 138.597H72.0186C72.5947 138.597 73.0244 138.45 73.3076 138.157C73.5908 137.864 73.7764 137.381 73.8643 136.707C73.9619 136.023 74.0107 135.115 74.0107 133.982V133.484C74.001 132.088 73.8789 131.033 73.6445 130.32C73.4102 129.598 72.8779 129.236 72.0479 129.236H70.6709V138.597Z" fill="#6F6F6E"/>
<path d="M57.8164 152.293C56.4785 152.293 55.3848 152.01 54.5352 151.443C53.6953 150.877 53.0752 150.037 52.6748 148.924C52.2744 147.811 52.0742 146.434 52.0742 144.793V133.001C52.0742 131.517 52.2695 130.247 52.6602 129.192C53.0508 128.138 53.6709 127.327 54.5205 126.761C55.3701 126.194 56.4834 125.911 57.8604 125.911C58.8955 125.911 59.7695 126.072 60.4824 126.395C61.1953 126.717 61.7715 127.186 62.2109 127.801C62.6504 128.406 62.9678 129.148 63.1631 130.027C63.3682 130.896 63.4707 131.888 63.4707 133.001V144.793C63.4707 146.434 63.2754 147.811 62.8848 148.924C62.5039 150.037 61.8984 150.877 61.0684 151.443C60.2383 152.01 59.1543 152.293 57.8164 152.293ZM57.8164 148.895C58.3047 148.895 58.6709 148.748 58.915 148.455C59.1592 148.162 59.3203 147.718 59.3984 147.122C59.4863 146.517 59.5303 145.755 59.5303 144.837V132.825C59.5303 131.702 59.4229 130.838 59.208 130.232C59.0029 129.617 58.5537 129.31 57.8604 129.31C57.1475 129.31 56.6641 129.607 56.4102 130.203C56.1562 130.789 56.0293 131.658 56.0293 132.811V144.837C56.0293 145.774 56.0684 146.546 56.1465 147.151C56.2344 147.747 56.4053 148.187 56.6592 148.47C56.9229 148.753 57.3086 148.895 57.8164 148.895Z" fill="#6F6F6E"/>
<path d="M44.5664 152.293C43.4922 152.293 42.5938 152.127 41.8711 151.795C41.1582 151.453 40.5918 150.96 40.1719 150.315C39.7617 149.661 39.4688 148.87 39.293 147.942C39.1172 147.005 39.0293 145.94 39.0293 144.749V142.449H42.75V145.042C42.75 146.429 42.8672 147.425 43.1016 148.03C43.3359 148.636 43.7998 148.938 44.4932 148.938C44.9619 148.938 45.3135 148.831 45.5479 148.616C45.792 148.392 45.9531 148.04 46.0312 147.562C46.1191 147.073 46.1631 146.438 46.1631 145.657C46.1631 144.69 45.958 143.807 45.5479 143.006C45.1475 142.205 44.5371 141.375 43.7168 140.516L41.8125 138.553C41.2852 138.006 40.8066 137.425 40.377 136.81C39.957 136.194 39.6201 135.511 39.3662 134.759C39.1221 133.997 39 133.147 39 132.21C39 130.853 39.166 129.705 39.498 128.768C39.8301 127.83 40.3916 127.122 41.1826 126.644C41.9736 126.155 43.0576 125.911 44.4346 125.911C45.4697 125.911 46.3193 126.072 46.9834 126.395C47.6572 126.707 48.1797 127.171 48.5508 127.786C48.9316 128.392 49.2002 129.134 49.3564 130.013C49.5127 130.882 49.5908 131.878 49.5908 133.001V134.598H45.9727V132.752C45.9727 131.971 45.9287 131.321 45.8408 130.804C45.7627 130.286 45.6113 129.9 45.3867 129.646C45.1621 129.383 44.835 129.251 44.4053 129.251C43.9951 129.251 43.6631 129.344 43.4092 129.529C43.1553 129.705 42.9697 129.983 42.8525 130.364C42.7451 130.735 42.6914 131.219 42.6914 131.814C42.6914 132.352 42.7598 132.815 42.8965 133.206C43.0332 133.597 43.2432 133.973 43.5264 134.334C43.8096 134.695 44.1611 135.101 44.5811 135.55L46.7051 137.85C47.7207 138.943 48.5117 140.081 49.0781 141.263C49.6445 142.444 49.9277 143.763 49.9277 145.218C49.9277 146.761 49.7617 148.06 49.4297 149.114C49.0977 150.159 48.541 150.95 47.7598 151.487C46.9785 152.024 45.9141 152.293 44.5664 152.293Z" fill="#6F6F6E"/>
<g clip-path="url(#clip0_2313_2672)">
<path d="M107.248 22.6009C127.133 28.1461 131.647 51.6278 127.682 70.8521C123.498 91.1013 109.895 108.236 91.5956 114.859C71.954 121.968 50.3361 116.843 35.3426 101.364C19.0926 84.5837 16.433 61.4174 21.5691 38.8292C12.9927 37.3837 5.84367 33.192 0 25.9385C8.08843 21.0635 15.6401 16.7403 23.1673 10.7221C31.8901 3.74455 39.7589 -1.40646 51.0803 0.341206C60.7303 1.8392 66.6472 9.60512 75.2236 13.4027C85.2395 17.831 94.365 12.5617 104.454 12.5617C105.406 15.965 106.308 19.2107 107.248 22.6009ZM95.2555 21.0503C85.9349 21.6811 77.9197 22.6272 69.5385 17.4236C63.4264 13.6129 58.9857 8.50134 51.8123 7.00334C35.6598 3.62628 22.8379 18.1595 10.8334 27.5811C18.0556 33.2971 24.2043 32.5875 31.6705 29.8806C26.5344 39.1314 22.7403 50.892 24.7777 61.2991C30.3285 55.9379 36.1478 54.5318 43.3335 57.3307C44.4924 50.708 45.8466 43.218 47.6034 36.7661C51.0193 41.0105 54.911 48.3428 60.1081 52.0746C64.561 55.2677 70.0997 56.1481 75.3334 55.4385C84.5076 54.1902 104.564 41.5492 101.514 28.8951C98.3909 26.0305 94.2064 26.3196 90.4122 24.4405C92.352 23.0871 93.7184 22.1278 95.2555 21.0503ZM107.809 29.4339C107.626 33.6782 106.186 37.0815 104.466 40.7871C102.173 45.7278 102.234 46.1089 103.271 51.733C104.942 60.8129 106.418 69.722 104.893 78.986C102.173 95.5296 89.7657 104.202 74.5526 104.741C61.2671 105.201 48.494 96.5808 46.8104 81.7323C45.9442 74.0978 48.0792 64.0586 38.295 62.4029C32.7441 61.4699 26.9004 65.7931 26.571 71.9296C25.7902 86.4365 42.8211 101.929 53.447 107.119C66.7692 113.611 82.6898 113.269 95.7069 106.134C108.846 98.933 118.289 85.635 121.631 70.1951C124.803 55.5962 123.547 34.6768 107.809 29.4339ZM97.1099 51.2468C83.0436 61.0757 62.792 68.7102 50.4947 51.1022C49.6651 55.6094 48.8477 61.1414 48.8477 61.1414C48.8477 61.1414 50.6655 64.0586 51.7269 67.3568C53.3006 72.2187 52.2271 76.6338 52.8249 81.5483C54.118 92.1263 63.036 97.9343 72.442 98.4599C98.9277 99.9316 102.588 73.4539 97.1099 51.2468Z" fill="#6F6F6E"/>
<path d="M58.0708 31.5235C58.0708 24.4146 62.9385 21.8522 68.2576 25.1504C64.5123 26.3068 61.3647 28.4092 58.0708 31.5235Z" fill="#6F6F6E"/>
<path d="M67.8671 82.8105H57.0825C58.5953 77.5018 66.4641 76.8185 67.8671 82.8105Z" fill="#6F6F6E"/>
<path d="M79.5056 82.8365C81.5064 77.0022 88.1186 77.0417 90.2414 82.8365H79.5056Z" fill="#6F6F6E"/>
<path d="M78.237 91.3909C76.5168 92.8101 75.1626 93.9402 73.6987 95.1622C72.1371 93.9007 70.7829 92.797 69.1116 91.4435C72.3079 89.7484 74.9918 89.4593 78.237 91.3909Z" fill="#6F6F6E"/>
</g>
<defs>
<clipPath id="clip0_2313_2672">
<rect width="129" height="118" fill="white"/>
</clipPath>
</defs>
</svg>
