<svg width="140" height="140" viewBox="0 0 140 140" fill="none" xmlns="http://www.w3.org/2000/svg">
<path d="M23.3333 96.2499C29.7767 96.2499 35 91.0266 35 84.5833C35 78.1399 29.7767 72.9166 23.3333 72.9166C16.89 72.9166 11.6667 78.1399 11.6667 84.5833C11.6667 91.0266 16.89 96.2499 23.3333 96.2499Z" fill="#C99470"/>
<path d="M7.11667 105.467C2.8 107.333 0 111.533 0 116.258V125.417H26.25V116.025C26.25 111.183 27.5917 106.633 29.925 102.667C27.7667 102.317 25.6083 102.083 23.3333 102.083C17.5583 102.083 12.075 103.308 7.11667 105.467Z" fill="#C99470"/>
<path d="M116.667 96.2499C123.11 96.2499 128.333 91.0266 128.333 84.5833C128.333 78.1399 123.11 72.9166 116.667 72.9166C110.223 72.9166 105 78.1399 105 84.5833C105 91.0266 110.223 96.2499 116.667 96.2499Z" fill="#C99470"/>
<path d="M132.883 105.467C127.925 103.308 122.442 102.083 116.667 102.083C114.392 102.083 112.233 102.317 110.075 102.667C112.408 106.633 113.75 111.183 113.75 116.025V125.417H140V116.258C140 111.533 137.2 107.333 132.883 105.467Z" fill="#C99470"/>
<path d="M94.7333 100.042C87.9083 97.0082 79.5083 94.7916 70 94.7916C60.4917 94.7916 52.0917 97.0666 45.2667 100.042C38.9667 102.842 35 109.142 35 116.025V125.417H105V116.025C105 109.142 101.033 102.842 94.7333 100.042ZM47.075 113.75C47.6 112.408 48.65 111.3 49.9333 110.717C56.35 107.858 63.1167 106.458 69.9417 106.458C76.825 106.458 83.5333 107.917 89.95 110.717C91.2917 111.3 92.2833 112.408 92.8083 113.75H47.075Z" fill="#C99470"/>
<path d="M52.5 72.9166C52.5 82.5999 60.3167 90.4166 70 90.4166C79.6833 90.4166 87.5 82.5999 87.5 72.9166C87.5 63.2332 79.6833 55.4166 70 55.4166C60.3167 55.4166 52.5 63.2332 52.5 72.9166ZM75.8333 72.9166C75.8333 76.1249 73.2083 78.7499 70 78.7499C66.7917 78.7499 64.1667 76.1249 64.1667 72.9166C64.1667 69.7082 66.7917 67.0832 70 67.0832C73.2083 67.0832 75.8333 69.7082 75.8333 72.9166Z" fill="#C99470"/>
<path d="M14.4667 66.2666C12.6583 61.8332 11.6667 57.5166 11.6667 53.0833C11.6667 38.0333 23.45 26.2499 38.5 26.2499C54.1333 26.2499 60.7833 36.3999 70 47.1916C79.1583 36.5166 85.75 26.2499 101.5 26.2499C116.55 26.2499 128.333 38.0333 128.333 53.0833C128.333 57.5166 127.342 61.8332 125.533 66.2666C129.325 68.0749 132.417 71.0499 134.458 74.6666C137.958 67.6666 140 60.5499 140 53.0833C140 31.4999 123.083 14.5833 101.5 14.5833C89.3083 14.5833 77.6417 20.2416 70 29.2249C62.3583 20.2416 50.6917 14.5833 38.5 14.5833C16.9167 14.5833 0 31.4999 0 53.0833C0 60.5499 2.04167 67.6666 5.6 74.6666C7.64167 71.0499 10.7333 68.0749 14.4667 66.2666Z" fill="#C99470"/>
</svg>
