<svg width="140" height="140" viewBox="0 0 140 140" fill="none" xmlns="http://www.w3.org/2000/svg">
<path d="M80.2078 30.6251C86.6245 30.6251 91.8745 25.3751 91.8745 18.9584C91.8745 12.5417 86.6245 7.29175 80.2078 7.29175C73.7912 7.29175 68.5411 12.5417 68.5411 18.9584C68.5411 25.3751 73.7912 30.6251 80.2078 30.6251ZM103.541 61.4251C96.3661 59.2667 90.5912 54.6001 87.2078 48.7084L81.3745 39.3751C78.9828 35.5834 74.8995 33.5417 70.6411 33.5417C66.0911 33.5417 61.3661 36.4584 60.2578 41.9417C59.1495 47.4251 42.2912 132.708 42.2912 132.708H54.5412L65.0411 86.0417L77.2912 97.7084V132.708H88.9578V88.9584L76.7078 77.2917L80.2078 59.7917C86.0412 66.5001 94.2662 71.5167 103.541 73.4417V132.708H112.291V51.0417H103.541V61.4251ZM44.7995 75.1334L32.4328 72.7417C29.2828 72.1001 27.1828 69.0667 27.8245 65.9167L32.2578 42.9917C33.4828 36.6917 39.6078 32.5501 45.9078 33.7751L52.6745 35.1167L44.7995 75.1334Z" fill="#C77A78"/>
</svg>
