<svg width="61" height="197" viewBox="0 0 61 197" fill="none" xmlns="http://www.w3.org/2000/svg">
<path d="M60.1006 195.872H1.10059C4.26725 149.706 10.6006 57.0724 10.6006 55.8724C10.6006 54.3724 10.1006 44.8722 7.10059 38.8724C4.70059 34.0725 4.10059 26.8725 4.10059 23.8724C3.95872 22.3119 4.34816 18.8436 6.68727 15.8724C5.99171 13.7058 5.10059 9.07246 7.10059 7.87241C9.10059 6.67235 11.6006 10.5286 12.6006 12.6067C14.8877 12.5666 16.993 13.5669 18.1006 14.3724C17.8269 12.4568 18.07 8.83362 20.6006 7.1551C20.6006 5.06087 21.0006 0.972405 22.6006 1.3724C24.2006 1.77241 25.7248 4.87236 26.2868 6.37233C28.562 6.82908 30.0317 8.07592 30.6006 8.87233C30.9694 7.76574 32.2091 6.06048 34.6006 5.88452C34.9339 3.71381 36.0006 -0.227599 37.6006 1.3724C39.2006 2.97241 39.6006 6.01697 39.6006 7.33925C42.5536 9.16818 43.8232 11.9855 44.1006 13.3722C44.9162 13.2467 46.1665 13.2299 47.6006 13.4924C47.2673 11.2637 47.2006 6.91272 49.6006 7.33925C52.0006 7.76577 52.6006 12.9933 52.6006 15.5538C53.4782 16.1646 54.3271 16.9269 55.1006 17.8722C59.6006 23.3722 57.6006 29.8722 57.1006 30.8722C56.6006 31.8722 54.6006 36.8722 52.6006 44.8722C51.0006 51.2722 51.2673 61.2056 51.6006 65.3722C50.0006 70.9722 56.6006 154.706 60.1006 195.872Z" fill="#D6EDF0"/>
<path d="M6.68727 15.8724C7.09625 15.3529 7.56483 14.8486 8.10059 14.3724C9.52562 13.1057 11.1021 12.6329 12.6006 12.6067M6.68727 15.8724C4.34816 18.8436 3.95872 22.3119 4.10059 23.8724C4.10059 26.8725 4.70059 34.0725 7.10059 38.8724C10.1006 44.8722 10.6006 54.3724 10.6006 55.8724C10.6006 57.0724 4.26725 149.706 1.10059 195.872C17.9006 195.872 47.4339 195.872 60.1006 195.872C56.6006 154.706 50.0006 70.9722 51.6006 65.3722C51.2673 61.2056 51.0006 51.2722 52.6006 44.8722C54.6006 36.8722 56.6006 31.8722 57.1006 30.8722C57.6006 29.8722 59.6006 23.3722 55.1006 17.8722C54.3271 16.9269 53.4782 16.1646 52.6006 15.5538M6.68727 15.8724C5.99171 13.7058 5.10059 9.07246 7.10059 7.87241C9.10059 6.67235 11.6006 10.5286 12.6006 12.6067M12.6006 12.6067C14.8877 12.5666 16.993 13.5669 18.1006 14.3724C17.8269 12.4568 18.07 8.83362 20.6006 7.1551M20.6006 7.1551C21.1524 6.7891 21.8129 6.51555 22.6006 6.37233C23.9971 6.11841 25.229 6.15997 26.2868 6.37233M20.6006 7.1551C20.6006 5.06087 21.0006 0.972405 22.6006 1.3724C24.2006 1.7724 25.7248 4.87236 26.2868 6.37233M26.2868 6.37233C28.562 6.82908 30.0317 8.07593 30.6006 8.87233C30.9694 7.76574 32.2091 6.06048 34.6006 5.88452M34.6006 5.88452C35.4508 5.82196 36.4466 5.9527 37.6006 6.37233C38.3397 6.64108 39.0044 6.97002 39.6006 7.33925M34.6006 5.88452C34.9339 3.71381 36.0006 -0.227599 37.6006 1.3724C39.2006 2.97241 39.6006 6.01697 39.6006 7.33925M39.6006 7.33925C42.5536 9.16818 43.8232 11.9855 44.1006 13.3722C44.9162 13.2467 46.1665 13.2299 47.6006 13.4924M47.6006 13.4924C47.2673 11.2637 47.2006 6.91272 49.6006 7.33925C52.0006 7.76577 52.6006 12.9933 52.6006 15.5538M47.6006 13.4924C49.1575 13.7775 50.9311 14.3918 52.6006 15.5538M16.6006 53.3723C16.4339 55.3723 18.8006 59.8723 29.6006 61.8723" stroke="#404552"/>
<path d="M16.7925 25.5674C16.9868 27.4816 16.7811 29.2285 16.3136 30.4999C15.8332 31.8064 15.1475 32.45 14.4826 32.5175C13.8177 32.585 13.0166 32.0923 12.2835 30.909C11.5701 29.7575 11.0175 28.0875 10.8232 26.1733C10.6289 24.2591 10.8347 22.5121 11.3022 21.2408C11.7825 19.9343 12.4683 19.2906 13.1332 19.2231C13.7981 19.1556 14.5992 19.6484 15.3323 20.8317C16.0457 21.9832 16.5983 23.6532 16.7925 25.5674Z" fill="#D6EDF0" stroke="#404552"/>
<path d="M28.7925 17.5674C28.9868 19.4816 28.7811 21.2285 28.3136 22.4999C27.8332 23.8064 27.1475 24.45 26.4826 24.5175C25.8177 24.585 25.0166 24.0923 24.2835 22.909C23.5701 21.7575 23.0175 20.0875 22.8232 18.1733C22.6289 16.2591 22.8347 14.5121 23.3022 13.2408C23.7825 11.9343 24.4683 11.2906 25.1332 11.2231C25.7981 11.1556 26.5992 11.6484 27.3323 12.8317C28.0457 13.9832 28.5983 15.6532 28.7925 17.5674Z" fill="#D6EDF0" stroke="#404552"/>
<path d="M38.6336 18.032C38.4856 19.9503 37.9736 21.6332 37.2882 22.8016C36.584 24.0023 35.7951 24.5143 35.1287 24.4629C34.4623 24.4115 33.7612 23.7846 33.2494 22.4901C32.7514 21.2304 32.5034 19.489 32.6514 17.5706C32.7993 15.6523 33.3114 13.9694 33.9967 12.801C34.701 11.6003 35.4899 11.0883 36.1563 11.1397C36.8226 11.1911 37.5237 11.818 38.0355 13.1125C38.5336 14.3722 38.7816 16.1137 38.6336 18.032Z" fill="#D6EDF0" stroke="#404552"/>
<path d="M50.1226 26.27C49.947 28.186 49.4107 29.8613 48.7086 31.0197C47.9871 32.2102 47.1909 32.7107 46.5254 32.6497C45.8598 32.5887 45.1678 31.9518 44.6747 30.65C44.1949 29.3833 43.9721 27.6384 44.1477 25.7224C44.3233 23.8064 44.8595 22.1311 45.5616 20.9727C46.2832 19.7823 47.0794 19.2817 47.7449 19.3427C48.4105 19.4037 49.1025 20.0407 49.5956 21.3424C50.0754 22.6091 50.2982 24.354 50.1226 26.27Z" fill="#D6EDF0" stroke="#404552"/>
<path d="M42.1006 43.8721C42.1006 50.5189 36.9328 55.8721 30.6006 55.8721C24.2684 55.8721 19.1006 50.5189 19.1006 43.8721C19.1006 40.5368 20.4036 36.7625 22.5209 33.8256C24.6432 30.8819 27.5113 28.8721 30.6006 28.8721C33.6899 28.8721 36.5579 30.8819 38.6803 33.8256C40.7976 36.7625 42.1006 40.5368 42.1006 43.8721Z" fill="#D6EDF0" stroke="#404552"/>
</svg>
