<svg width="64" height="171" viewBox="0 0 64 171" fill="none" xmlns="http://www.w3.org/2000/svg">
<path d="M8.29814 50.0003L8.29814 169.874L56.7981 169.85C54.9459 132.018 56.8019 63.1003 56.7981 55.5003C56.7943 47.9004 58.7744 38.626 59.3084 35.5002C60.3972 29.126 60.2195 29.0002 62.2259 24.8475C63.3914 22.5136 64.6219 16.6463 60.2195 11.8485C55.8171 7.05068 50.3851 9.85339 48.2195 11.8545C48.8852 10.0208 49.2155 3.85393 43.7145 1.85644C34.7129 -1.41219 33.7175 7.86169 32.7167 6.36219C31.716 4.86269 28.5582 -0.365822 22.2142 1.36742C16.715 2.86987 17.0512 8.70332 17.7195 11.8697L14.7185 9.87117C10.7177 8.37316 3.21848 9.87689 1.72126 15.3777C-0.121814 22.1492 1.80509 24.5021 5.30832 31.0003C8.11091 36.1989 8.29814 50.0003 8.29814 50.0003Z" fill="#FADBC7" stroke="#404552"/>
<path d="M13.8877 19.6426C14.3031 20.7901 14.337 21.9309 14.0797 22.8392C13.8222 23.7485 13.2892 24.3855 12.5912 24.6381C11.8933 24.8908 11.076 24.7425 10.2962 24.2088C9.5171 23.6757 8.81295 22.7775 8.39755 21.63C7.98216 20.4824 7.94824 19.3416 8.20552 18.4333C8.46306 17.5241 8.996 16.8871 9.69398 16.6344C10.392 16.3817 11.2092 16.53 11.989 17.0637C12.7681 17.5969 13.4723 18.4951 13.8877 19.6426Z" fill="#FADBC7" stroke="#404552"/>
<path d="M28.0254 12.1464C28.1549 13.3599 27.9156 14.4758 27.4489 15.2965C26.9818 16.1179 26.3122 16.6094 25.5741 16.6881C24.836 16.7669 24.0778 16.4278 23.4478 15.7234C22.8185 15.0197 22.3491 13.9795 22.2196 12.7659C22.0901 11.5524 22.3294 10.4365 22.7961 9.61586C23.2632 8.79437 23.9328 8.30296 24.6709 8.22419C25.409 8.14543 26.1672 8.48448 26.7972 9.18889C27.4265 9.8926 27.8959 10.9329 28.0254 12.1464Z" fill="#FADBC7" stroke="#404552"/>
<path d="M42.5807 12.6036C42.2626 13.7818 41.636 14.7357 40.9041 15.3321C40.1716 15.929 39.3696 16.1451 38.653 15.9516C37.9363 15.7581 37.352 15.1678 37.0194 14.2833C36.6872 13.3996 36.6257 12.26 36.9438 11.0818C37.2619 9.90356 37.8885 8.94972 38.6204 8.35335C39.3529 7.75637 40.1549 7.54034 40.8715 7.73382C41.5882 7.92729 42.1725 8.51757 42.5051 9.40212C42.8373 10.2858 42.8988 11.4254 42.5807 12.6036Z" fill="#FADBC7" stroke="#404552"/>
<path d="M58.0466 21.9519C57.5419 23.0631 56.7691 23.9029 55.9504 24.3729C55.1309 24.8434 54.3045 24.9268 53.6286 24.6199C52.9528 24.3129 52.4717 23.6358 52.2867 22.7091C52.1019 21.7833 52.2257 20.6488 52.7304 19.5376C53.235 18.4264 54.0078 17.5866 54.8265 17.1166C55.6461 16.646 56.4724 16.5627 57.1483 16.8696C57.8242 17.1766 58.3052 17.8537 58.4902 18.7804C58.675 19.7062 58.5512 20.8407 58.0466 21.9519Z" fill="#FADBC7" stroke="#404552"/>
<path d="M49.8086 37.4918C49.8086 40.4406 47.9383 43.1806 44.7672 45.2081C41.6017 47.2319 37.1983 48.5 32.3086 48.5C27.4189 48.5 23.0155 47.2319 19.85 45.2081C16.6789 43.1806 14.8086 40.4406 14.8086 37.4918C14.8086 34.4999 16.7249 30.7494 19.9241 27.7259C23.11 24.7149 27.4924 22.5 32.3086 22.5C37.1247 22.5 41.5071 24.7149 44.6931 27.7259C47.8923 30.7494 49.8086 34.4999 49.8086 37.4918Z" fill="#FADBC7" stroke="#404552"/>
</svg>
