<svg width="64" height="171" viewBox="0 0 64 171" fill="none" xmlns="http://www.w3.org/2000/svg">
<path d="M14.4063 46.8468L7.90631 169.847H56.4063C54.5729 132.013 50.9063 54.4468 50.9063 46.8468C50.9063 39.2468 52.9063 36.6801 53.9063 36.3467C55.5063 32.3467 59.9063 27.0134 61.9063 24.8467C63.0729 22.5134 64.3063 16.6467 59.9063 11.8467C55.5063 7.04671 50.0729 9.84672 47.9063 11.8467C48.5729 10.0134 48.9062 3.84667 43.4062 1.84644C34.4062 -1.42666 33.4063 7.84672 32.4063 6.34672C31.4063 4.84672 28.2511 -0.383358 21.9063 1.34672C16.4062 2.84644 16.7396 8.68006 17.4063 11.8467L14.4063 9.84674C10.4062 8.34674 2.90627 9.84674 1.40632 15.3468C-0.440131 22.1174 4.40631 27.8468 7.90631 34.3468C10.7063 39.5468 13.4063 44.8468 14.4063 46.8468Z" fill="#E3DBEB" stroke="#404552"/>
<path d="M14.2329 18.8666C14.538 20.0482 14.4641 21.1871 14.1222 22.067C13.7799 22.9479 13.1892 23.5317 12.4705 23.7173C11.7518 23.903 10.9522 23.6782 10.2262 23.0732C9.50097 22.4688 8.88479 21.5082 8.57962 20.3266C8.27445 19.1449 8.34841 18.006 8.69032 17.1261C9.03258 16.2452 9.6233 15.6614 10.342 15.4758C11.0607 15.2902 11.8603 15.5149 12.5863 16.1199C13.3115 16.7243 13.9277 17.6849 14.2329 18.8666Z" fill="#404552" stroke="#404552"/>
<path d="M27.7118 12.1288C27.8407 13.3424 27.6008 14.4581 27.1338 15.2786C26.6663 16.0998 25.9964 16.5909 25.2583 16.6693C24.5201 16.7477 23.7621 16.4083 23.1325 15.7035C22.5036 14.9995 22.0347 13.959 21.9058 12.7454C21.7769 11.5318 22.0168 10.4161 22.4838 9.59565C22.9513 8.77439 23.6212 8.28331 24.3593 8.20491C25.0975 8.12652 25.8555 8.46594 26.4851 9.17067C27.114 9.87469 27.583 10.9152 27.7118 12.1288Z" fill="#404552" stroke="#404552"/>
<path d="M42.2671 12.5929C41.9484 13.7709 41.3212 14.7245 40.5891 15.3205C39.8563 15.9171 39.0542 16.1327 38.3376 15.9389C37.6211 15.745 37.0371 15.1545 36.7049 14.2698C36.3731 13.386 36.3122 12.2463 36.6309 11.0682C36.9496 9.89015 37.5767 8.93663 38.3088 8.34062C39.0417 7.74401 39.8438 7.52838 40.5603 7.72221C41.2769 7.91604 41.8609 8.50661 42.193 9.39133C42.5248 10.2751 42.5857 11.4148 42.2671 12.5929Z" fill="#404552" stroke="#404552"/>
<path d="M54.6452 21.3C54.14 22.4109 53.3667 23.2503 52.5478 23.72C51.728 24.1901 50.9016 24.273 50.2259 23.9657C49.5502 23.6585 49.0695 22.9811 48.8849 22.0543C48.7006 21.1285 48.825 19.994 49.3302 18.883C49.8353 17.7721 50.6086 16.9327 51.4275 16.463C52.2473 15.9929 53.0737 15.91 53.7494 16.2173C54.4251 16.5246 54.9058 17.2019 55.0904 18.1287C55.2747 19.0546 55.1504 20.189 54.6452 21.3Z" fill="#404552" stroke="#404552"/>
<path d="M20.4063 26.8467C17.4295 32.0561 18.4064 37.8467 20.9063 40.8467C25.3064 43.2467 29.7397 41.3467 30.9063 39.8467C33.073 40.68 35.9064 43.2466 39.4063 41.8467C41.9064 40.8467 44.9063 38.8467 42.9063 30.3467C40.9063 21.8467 32.9063 18.8467 30.9063 18.8467C28.9063 18.8467 24.4063 19.8467 20.4063 26.8467Z" fill="#404552" stroke="#404552"/>
</svg>
