<svg width="140" height="140" viewBox="0 0 140 140" fill="none" xmlns="http://www.w3.org/2000/svg">
<path d="M26.2503 67.0706C34.3045 67.0706 40.8337 60.5414 40.8337 52.4872C40.8337 44.4331 34.3045 37.9039 26.2503 37.9039C18.1962 37.9039 11.667 44.4331 11.667 52.4872C11.667 60.5414 18.1962 67.0706 26.2503 67.0706Z" fill="#756685"/>
<path d="M52.5003 43.7372C60.5545 43.7372 67.0837 37.208 67.0837 29.1539C67.0837 21.0997 60.5545 14.5706 52.5003 14.5706C44.4462 14.5706 37.917 21.0997 37.917 29.1539C37.917 37.208 44.4462 43.7372 52.5003 43.7372Z" fill="#756685"/>
<path d="M87.5003 43.7372C95.5545 43.7372 102.084 37.208 102.084 29.1539C102.084 21.0997 95.5545 14.5706 87.5003 14.5706C79.4462 14.5706 72.917 21.0997 72.917 29.1539C72.917 37.208 79.4462 43.7372 87.5003 43.7372Z" fill="#756685"/>
<path d="M113.75 67.0706C121.804 67.0706 128.334 60.5414 128.334 52.4872C128.334 44.4331 121.804 37.9039 113.75 37.9039C105.696 37.9039 99.167 44.4331 99.167 52.4872C99.167 60.5414 105.696 67.0706 113.75 67.0706Z" fill="#756685"/>
<path d="M101.15 83.7539C96.0753 77.8039 91.817 72.7289 86.6837 66.7789C84.0003 63.6289 80.5587 60.4789 76.4753 59.0789C75.8337 58.8456 75.192 58.6706 74.5503 58.5539C73.092 58.3206 71.517 58.3206 70.0003 58.3206C68.4837 58.3206 66.9087 58.3206 65.392 58.6122C64.7503 58.7289 64.1087 58.9039 63.467 59.1372C59.3837 60.5372 56.0003 63.6872 53.2587 66.8372C48.1837 72.7872 43.9253 77.8622 38.792 83.8122C31.1503 91.4539 21.7587 99.9122 23.5087 111.754C25.2003 117.704 29.4587 123.596 37.1003 125.287C41.3587 126.162 54.9503 122.721 69.417 122.721H70.467C84.9337 122.721 98.5253 126.104 102.784 125.287C110.425 123.596 114.684 117.646 116.375 111.754C118.184 99.8539 108.792 91.3956 101.15 83.7539Z" fill="#756685"/>
</svg>
