<svg width="140" height="140" viewBox="0 0 140 140" fill="none" xmlns="http://www.w3.org/2000/svg">
<path d="M70.0003 11.6667C37.8003 11.6667 11.667 37.8001 11.667 70.0001C11.667 102.2 37.8003 128.333 70.0003 128.333C102.2 128.333 128.334 102.2 128.334 70.0001C128.334 37.8001 102.2 11.6667 70.0003 11.6667ZM23.3337 70.0001C23.3337 66.4417 23.8003 62.9417 24.5587 59.6167L52.442 87.5001V93.3334C52.442 99.7501 57.692 105 64.1087 105V116.258C41.1837 113.342 23.3337 93.7417 23.3337 70.0001ZM104.359 101.5C102.842 96.7751 98.5253 93.3334 93.2753 93.3334H87.442V75.8334C87.442 72.6251 84.817 70.0001 81.6087 70.0001H46.6087V58.3334H58.2753C61.4837 58.3334 64.1087 55.7084 64.1087 52.5001V40.8334H75.7753C82.192 40.8334 87.442 35.5834 87.442 29.1667V26.7751C104.534 33.6584 116.667 50.4584 116.667 70.0001C116.667 82.1334 111.942 93.2167 104.359 101.5Z" fill="#78B5A6"/>
</svg>
